<svg width="1500" height="192" viewBox="0 0 1500 192" fill="none" xmlns="http://www.w3.org/2000/svg">
<path fill-rule="evenodd" clip-rule="evenodd" d="M886.436 57.4731C923.076 57.4731 950.873 86.2264 950.873 120.955C950.872 156.155 922.842 184.912 886.436 184.912C849.809 184.912 821.523 156.173 821.522 120.955C821.522 85.9526 850.071 57.4733 886.436 57.4731ZM886.436 84.3557C865.788 84.356 849.839 100.948 849.839 121.193C849.839 141.189 865.779 157.792 886.436 157.792C906.826 157.792 922.558 141.218 922.558 121.193C922.558 100.919 906.817 84.3557 886.436 84.3557Z" fill="#131B39"/>
<path fill-rule="evenodd" clip-rule="evenodd" d="M1025.41 57.4731C1062.05 57.4731 1089.85 86.2264 1089.85 120.955C1089.85 156.155 1061.82 184.912 1025.41 184.912C988.785 184.912 960.499 156.172 960.498 120.955C960.498 85.9527 989.048 57.4736 1025.41 57.4731ZM1025.41 84.3557C1004.76 84.3563 988.815 100.948 988.815 121.193C988.815 141.189 1004.76 157.792 1025.41 157.792C1045.8 157.792 1061.53 141.218 1061.53 121.193C1061.53 100.919 1045.79 84.3557 1025.41 84.3557Z" fill="#131B39"/>
<path d="M1240.58 14.4808C1268.83 14.481 1294.76 28.982 1307.38 53.2378C1307.96 54.3456 1307.56 55.7108 1306.48 56.3359L1286.65 67.8005C1285.54 68.4443 1284.11 68.0659 1283.47 66.9545C1274.57 51.6689 1259.33 42.318 1239.62 42.318C1210.01 42.3184 1186.55 66.9196 1186.55 99.4568C1186.55 132.504 1209.8 157.314 1239.62 157.315C1259.35 157.315 1274.81 147.95 1283.45 132.7C1284.09 131.572 1285.53 131.182 1286.65 131.831L1306.48 143.297C1307.56 143.922 1307.96 145.287 1307.38 146.395C1294.75 170.663 1268.82 184.912 1240.58 184.912C1194.11 184.912 1156.8 147.287 1156.8 99.4568C1156.8 52.096 1194.12 14.4808 1240.58 14.4808Z" fill="#131B39"/>
<path fill-rule="evenodd" clip-rule="evenodd" d="M1382.65 57.4731C1419.24 57.4731 1447.33 84.746 1447.33 120.955V179.407C1447.33 180.865 1446.15 182.046 1444.69 182.046H1422.84C1421.39 182.046 1420.2 180.865 1420.2 179.407V166.392C1410.6 177.907 1396.17 184.912 1379.07 184.912C1343.72 184.912 1317.98 156.012 1317.98 120.955C1317.98 86.2208 1345.78 57.4735 1382.65 57.4731ZM1382.65 84.3557C1362.25 84.3561 1346.29 100.939 1346.29 121.193C1346.29 141.199 1362.24 157.792 1382.65 157.792C1403.29 157.792 1419.01 141.208 1419.01 121.193C1419.01 100.929 1403.28 84.3557 1382.65 84.3557Z" fill="#131B39"/>
<path d="M616.934 57.4731C639.171 57.4777 659.867 67.6517 671.068 89.5564C671.639 90.6734 671.225 92.0415 670.131 92.6552L650.546 103.643C649.413 104.279 647.979 103.868 647.354 102.729C640.842 90.8265 629.929 84.5955 616.919 84.5955C597.733 84.5956 581.753 100.92 581.753 120.955C581.754 141.258 597.761 157.792 616.919 157.792C629.928 157.792 640.842 151.561 647.354 139.659C647.974 138.527 649.395 138.113 650.526 138.734L670.113 149.483C671.216 150.088 671.64 151.458 671.073 152.581C659.869 174.739 639.165 184.664 616.949 184.673L616.951 184.675C581.923 185.171 553.439 156.124 553.439 120.955C553.439 86.0084 581.931 57.2342 616.919 57.4731H616.934Z" fill="#131B39"/>
<path d="M481.555 14.9581C506.636 14.9583 529.346 26.7966 539.349 49.8016C539.839 50.9272 539.372 52.2399 538.282 52.8042L517.979 63.314C516.817 63.9157 515.387 63.4447 514.809 62.27C508.773 49.9729 497.43 42.318 480.599 42.318C465.042 42.3183 453.555 51.3577 453.554 63.1511C453.554 67.0435 454.508 70.0454 456.116 72.4554C457.738 74.8869 460.126 76.8663 463.223 78.533C469.513 81.9176 478.219 83.7755 487.979 85.7034H487.983L490.24 86.1613C501.61 88.5077 514.259 91.7612 524.286 98.4072C535.165 105.618 542.886 116.776 542.886 134.568C542.886 164.46 516.299 184.675 483.227 184.675C455.564 184.675 431.868 172.153 421.851 149.114C421.352 147.969 421.844 146.635 422.966 146.087L443.508 136.054C444.693 135.475 446.122 135.993 446.662 137.197C452.391 149.976 464.99 157.075 483.227 157.075C492.209 157.075 499.935 154.94 505.345 151.114C510.681 147.341 513.855 141.88 513.855 134.808C513.855 130.763 512.93 127.708 511.39 125.309C509.843 122.897 507.566 120.983 504.607 119.4C498.57 116.172 490.195 114.553 480.642 112.739L480.625 112.735C468.58 110.35 454.668 107.123 443.768 100.042C432.686 92.8432 424.762 81.6859 424.762 63.8682C424.762 35.7204 450.308 14.9581 481.555 14.9581Z" fill="#131B39"/>
<path d="M714.305 70.3518C723.729 62.3305 736.7 57.4732 750.902 57.4731C768.645 57.4731 782.758 63.4065 792.411 74.194C802.031 84.9465 806.978 100.251 806.978 118.566V179.407C806.978 180.865 805.797 182.046 804.339 182.046H781.303C779.845 182.046 778.664 180.865 778.664 179.407V120.955C778.664 110.966 775.905 101.844 770.664 95.2712C765.471 88.7599 757.727 84.5955 747.319 84.5955C728.079 84.5958 714.305 100.004 714.305 121.67V179.407C714.305 180.865 713.123 182.046 711.666 182.046H688.627C687.17 182.046 685.988 180.865 685.988 179.407V9.2369C685.988 7.77929 687.17 6.59766 688.627 6.59766H711.666C713.123 6.59766 714.305 7.77929 714.305 9.2369V70.3518Z" fill="#131B39"/>
<path d="M1137.52 179.407C1137.52 180.865 1136.33 182.046 1134.88 182.046H1111.84C1110.38 182.046 1109.2 180.865 1109.2 179.407V9.2369C1109.2 7.77929 1110.38 6.59766 1111.84 6.59766H1134.88C1136.33 6.59766 1137.52 7.77929 1137.52 9.2369V179.407Z" fill="#131B39"/>
<path d="M1500 179.407C1500 180.865 1498.82 182.046 1497.36 182.046H1474.32C1472.86 182.046 1471.68 180.865 1471.68 179.407V9.2369C1471.68 7.77929 1472.86 6.59766 1474.32 6.59766H1497.36C1498.82 6.59766 1500 7.77929 1500 9.2369V179.407Z" fill="#131B39"/>
<path fill-rule="evenodd" clip-rule="evenodd" d="M186.367 -6.57424e-06C189.075 -6.57424e-06 191.271 2.19576 191.271 4.90437L191.271 107.209C191.271 109.394 193.912 110.488 195.457 108.943L267.798 36.6027C269.713 34.6874 272.818 34.6874 274.733 36.6027L300.165 62.0341C302.08 63.9494 302.08 67.0547 300.165 68.97L227.824 141.31C226.279 142.855 227.374 145.497 229.558 145.497L331.863 145.497C334.572 145.497 336.768 147.692 336.768 150.401L336.768 186.366C336.768 189.075 334.572 191.271 331.863 191.271L227.699 191.271C225.098 191.271 222.603 190.237 220.764 188.398L171.851 139.485C169.936 137.57 166.83 137.57 164.915 139.485L116.002 188.398C114.163 190.237 111.668 191.271 109.066 191.271L4.90441 191.271C2.19579 191.271 5.27704e-05 189.075 5.28888e-05 186.366L5.44609e-05 150.401C5.45793e-05 147.692 2.19579 145.497 4.90441 145.497L107.208 145.497C109.392 145.497 110.486 142.855 108.942 141.31L36.6013 68.9701C34.686 67.0548 34.686 63.9496 36.6013 62.0343L62.0327 36.6029C63.948 34.6876 67.0533 34.6876 68.9685 36.6029L141.31 108.945C142.855 110.49 145.497 109.396 145.497 107.211L145.497 4.90437C145.497 2.19575 147.692 -3.74493e-06 150.401 -3.74493e-06L186.367 -6.57424e-06Z" fill="#FF895E"/>
</svg>
