<svg width="1500" height="193" viewBox="0 0 1500 193" fill="none" xmlns="http://www.w3.org/2000/svg">
<path fill-rule="evenodd" clip-rule="evenodd" d="M886.436 58.4165C923.076 58.4165 950.873 87.1698 950.873 121.898C950.872 157.099 922.842 185.856 886.436 185.856C849.809 185.855 821.523 157.116 821.522 121.898C821.522 86.8959 850.071 58.4167 886.436 58.4165ZM886.436 85.2991C865.788 85.2993 849.839 101.892 849.839 122.136C849.839 142.133 865.779 158.735 886.436 158.735C906.826 158.735 922.558 142.161 922.558 122.136C922.558 101.863 906.817 85.2991 886.436 85.2991Z" fill="#1B1B1B"/>
<path fill-rule="evenodd" clip-rule="evenodd" d="M1025.41 58.4165C1062.05 58.4165 1089.85 87.1698 1089.85 121.898C1089.85 157.099 1061.82 185.856 1025.41 185.856C988.785 185.855 960.499 157.116 960.498 121.898C960.498 86.8961 989.048 58.417 1025.41 58.4165ZM1025.41 85.2991C1004.76 85.2996 988.815 101.892 988.815 122.136C988.815 142.132 1004.76 158.735 1025.41 158.735C1045.8 158.735 1061.53 142.161 1061.53 122.136C1061.53 101.863 1045.79 85.2991 1025.41 85.2991Z" fill="#1B1B1B"/>
<path d="M1240.58 15.4242C1268.83 15.4244 1294.76 29.9253 1307.38 54.1812C1307.96 55.289 1307.56 56.6541 1306.48 57.2792L1286.65 68.7439C1285.54 69.3877 1284.11 69.0093 1283.47 67.8979C1274.57 52.6122 1259.33 43.2614 1239.62 43.2614C1210.01 43.2618 1186.55 67.863 1186.55 100.4C1186.55 133.447 1209.8 158.258 1239.62 158.258C1259.35 158.258 1274.81 148.893 1283.45 133.643C1284.09 132.515 1285.53 132.125 1286.65 132.774L1306.48 144.24C1307.56 144.865 1307.96 146.231 1307.38 147.338C1294.75 171.606 1268.82 185.855 1240.58 185.856C1194.11 185.856 1156.8 148.23 1156.8 100.4C1156.8 53.0393 1194.12 15.4242 1240.58 15.4242Z" fill="#1B1B1B"/>
<path fill-rule="evenodd" clip-rule="evenodd" d="M1382.65 58.4165C1419.24 58.4165 1447.33 85.6893 1447.33 121.898V180.35C1447.33 181.808 1446.15 182.99 1444.69 182.99H1422.84C1421.39 182.99 1420.2 181.808 1420.2 180.35V167.336C1410.6 178.85 1396.17 185.856 1379.07 185.856C1343.72 185.855 1317.98 156.956 1317.98 121.898C1317.98 87.1641 1345.78 58.4169 1382.65 58.4165ZM1382.65 85.2991C1362.25 85.2995 1346.29 101.882 1346.29 122.136C1346.29 142.142 1362.24 158.735 1382.65 158.735C1403.29 158.735 1419.01 142.152 1419.01 122.136C1419.01 101.872 1403.28 85.2991 1382.65 85.2991Z" fill="#1B1B1B"/>
<path d="M616.934 58.4165C639.171 58.421 659.867 68.5951 671.068 90.4998C671.639 91.6167 671.225 92.9849 670.131 93.5986L650.546 104.587C649.413 105.223 647.979 104.812 647.354 103.672C640.842 91.7698 629.929 85.5388 616.919 85.5388C597.733 85.5389 581.753 101.863 581.753 121.898C581.754 142.201 597.761 158.735 616.919 158.735C629.928 158.735 640.842 152.504 647.354 140.602C647.974 139.47 649.395 139.056 650.526 139.677L670.113 150.426C671.216 151.031 671.64 152.401 671.073 153.524C659.869 175.683 639.165 185.607 616.949 185.616L616.951 185.618C581.923 186.114 553.439 157.068 553.439 121.898C553.439 86.9517 581.931 58.1776 616.919 58.4165H616.934Z" fill="#1B1B1B"/>
<path d="M481.555 15.9015C506.636 15.9017 529.346 27.74 539.349 50.745C539.839 51.8706 539.372 53.1833 538.282 53.7476L517.979 64.2573C516.817 64.8591 515.387 64.3881 514.809 63.2133C508.773 50.9163 497.43 43.2614 480.599 43.2614C465.042 43.2617 453.555 52.3011 453.554 64.0945C453.554 67.9868 454.508 70.9888 456.116 73.3988C457.738 75.8303 460.126 77.8097 463.223 79.4764C469.513 82.8609 478.219 84.7189 487.979 86.6468H487.983L490.24 87.1047C501.61 89.451 514.259 92.7046 524.286 99.3505C535.165 106.561 542.886 117.719 542.886 135.511C542.886 165.403 516.299 185.618 483.227 185.618C455.564 185.618 431.868 173.097 421.851 150.058C421.352 148.913 421.844 147.578 422.966 147.03L443.508 136.998C444.693 136.419 446.122 136.936 446.662 138.14C452.391 150.92 464.99 158.018 483.227 158.018C492.209 158.018 499.935 155.883 505.345 152.057C510.681 148.284 513.855 142.824 513.855 135.751C513.855 131.706 512.93 128.652 511.39 126.253C509.843 123.84 507.566 121.926 504.607 120.343C498.57 117.115 490.195 115.497 480.642 113.683L480.625 113.678C468.58 111.293 454.668 108.066 443.768 100.985C432.686 93.7866 424.762 82.6293 424.762 64.8115C424.762 36.6638 450.308 15.9015 481.555 15.9015Z" fill="#1B1B1B"/>
<path d="M714.305 71.2952C723.729 63.2738 736.7 58.4165 750.902 58.4165C768.645 58.4165 782.758 64.3498 792.411 75.1374C802.031 85.8898 806.978 101.195 806.978 119.51V180.35C806.978 181.808 805.797 182.99 804.339 182.99H781.303C779.845 182.99 778.664 181.808 778.664 180.35V121.898C778.664 111.91 775.905 102.787 770.664 96.2145C765.471 89.7033 757.727 85.5388 747.319 85.5388C728.079 85.5391 714.305 100.947 714.305 122.613V180.35C714.305 181.808 713.123 182.99 711.666 182.99H688.627C687.17 182.99 685.988 181.808 685.988 180.35V10.1803C685.988 8.72265 687.17 7.54102 688.627 7.54102H711.666C713.123 7.54102 714.305 8.72264 714.305 10.1803V71.2952Z" fill="#1B1B1B"/>
<path d="M1137.52 180.35C1137.52 181.808 1136.33 182.99 1134.88 182.99H1111.84C1110.38 182.99 1109.2 181.808 1109.2 180.35V10.1803C1109.2 8.72265 1110.38 7.54102 1111.84 7.54102H1134.88C1136.33 7.54102 1137.52 8.72264 1137.52 10.1803V180.35Z" fill="#1B1B1B"/>
<path d="M1500 180.35C1500 181.808 1498.82 182.99 1497.36 182.99H1474.32C1472.86 182.99 1471.68 181.808 1471.68 180.35V10.1803C1471.68 8.72265 1472.86 7.54102 1474.32 7.54102H1497.36C1498.82 7.54102 1500 8.72264 1500 10.1803V180.35Z" fill="#1B1B1B"/>
<path fill-rule="evenodd" clip-rule="evenodd" d="M186.367 0.943353C189.075 0.943353 191.271 3.13912 191.271 5.84773L191.271 108.153C191.271 110.337 193.912 111.431 195.457 109.887L267.798 37.5461C269.713 35.6308 272.818 35.6308 274.733 37.5461L300.165 62.9775C302.08 64.8928 302.08 67.9981 300.165 69.9133L227.824 142.254C226.279 143.799 227.374 146.44 229.558 146.44L331.863 146.44C334.572 146.44 336.768 148.636 336.768 151.344L336.768 187.31C336.768 190.018 334.572 192.214 331.863 192.214L227.699 192.214C225.098 192.214 222.603 191.181 220.764 189.341L171.851 140.429C169.936 138.513 166.83 138.513 164.915 140.429L116.002 189.341C114.163 191.181 111.668 192.214 109.066 192.214L4.90441 192.214C2.19579 192.214 5.27704e-05 190.018 5.28888e-05 187.31L5.44609e-05 151.344C5.45793e-05 148.636 2.19579 146.44 4.90441 146.44L107.208 146.44C109.392 146.44 110.486 143.799 108.942 142.254L36.6013 69.9135C34.686 67.9982 34.686 64.8929 36.6013 62.9776L62.0327 37.5462C63.948 35.6309 67.0533 35.6309 68.9685 37.5462L141.31 109.888C142.855 111.433 145.497 110.339 145.497 108.154L145.497 5.84773C145.497 3.13911 147.692 0.943356 150.401 0.943356L186.367 0.943353Z" fill="#FF640C"/>
</svg>
